<svg width="30" height="30" viewBox="0 0 30 30" fill="none" xmlns="http://www.w3.org/2000/svg">
<path d="M12.198 1.37409C12.3144 1.41439 12.4815 1.47375 12.6919 1.55257C13.1125 1.71012 13.7077 1.94595 14.4194 2.26345C15.8393 2.89688 17.7413 3.86339 19.6518 5.19379C23.4313 7.82563 27.5 12.0711 27.5 18.1742C27.5 20.8422 26.7881 23.4836 25.1307 25.482C23.444 27.5158 20.8869 28.75 17.5 28.75C17.4189 28.75 17.094 28.7473 16.7711 28.5156C16.3207 28.1926 16.2124 27.6925 16.2606 27.3333C16.297 27.0627 16.4131 26.8781 16.447 26.8252C16.4957 26.7491 16.5425 26.6945 16.5667 26.6673C16.6163 26.6116 16.6601 26.5726 16.6759 26.5587C16.6969 26.5403 16.7145 26.5259 16.7251 26.5175C16.7582 26.4911 16.7904 26.4681 16.8003 26.4611L16.8016 26.4601L16.8982 26.392C16.9702 26.3409 17.0734 26.2663 17.1985 26.1684C17.4507 25.971 17.7871 25.6825 18.1211 25.3157C18.806 24.5636 19.375 23.6023 19.375 22.5C19.375 20.4601 18.2137 18.5643 16.8834 17.0862C16.2337 16.3643 15.5805 15.7833 15.0893 15.3831C15.0589 15.3583 15.0291 15.3342 15 15.3109C14.9709 15.3342 14.9411 15.3583 14.9107 15.3831C14.4195 15.7833 13.7663 16.3643 13.1166 17.0862C11.7863 18.5643 10.625 20.4601 10.625 22.5C10.625 23.6109 11.1926 24.5726 11.8728 25.3205C12.2051 25.6858 12.5399 25.9723 12.7909 26.1675C12.9154 26.2643 13.0177 26.3374 13.0874 26.3859C13.1167 26.4062 13.1394 26.4217 13.1601 26.4358L13.1752 26.4461C13.1839 26.452 13.2044 26.466 13.2233 26.4796C13.229 26.4837 13.2674 26.5111 13.3095 26.547C13.3229 26.5584 13.3465 26.5789 13.3744 26.6062C13.3942 26.6256 13.4558 26.6865 13.5197 26.7765C13.5529 26.8258 13.6263 26.9572 13.6628 27.0407C13.7085 27.1797 13.7489 27.5563 13.7166 27.7876C13.6125 28.0702 13.2534 28.4975 13.0301 28.632C12.8723 28.6933 12.6042 28.7456 12.5 28.75C9.11306 28.75 6.55598 27.5158 4.86929 25.482C3.21191 23.4836 2.5 20.8422 2.5 18.1742C2.5 14.9865 3.60446 12.9769 5.06608 11.4438C5.74562 10.7311 6.49644 10.1278 7.16973 9.58679L7.22316 9.54386C7.93253 8.97376 8.55342 8.46985 9.08473 7.89864C10.3853 6.50044 10.6806 5.23394 10.7007 4.37251C10.7111 3.92804 10.6482 3.56768 10.5868 3.32764C10.5562 3.20803 10.5264 3.12008 10.5074 3.06876C10.4979 3.04317 10.4912 3.02696 10.4886 3.02076C10.2841 2.57338 10.3604 2.04586 10.6855 1.67544C11.0873 1.2177 11.661 1.18832 12.198 1.37409Z" fill="#FF0000"/>
</svg>
