<svg width="15" height="15" viewBox="0 0 15 15" fill="none" xmlns="http://www.w3.org/2000/svg">
<path d="M9.0625 2.5C9.0625 3.36294 8.36294 4.0625 7.5 4.0625C6.63705 4.0625 5.9375 3.36294 5.9375 2.5C5.9375 1.63706 6.63705 0.9375 7.5 0.9375C8.36294 0.9375 9.0625 1.63706 9.0625 2.5Z" fill="black"/>
<path d="M9.0625 7.5C9.0625 8.36294 8.36294 9.0625 7.5 9.0625C6.63705 9.0625 5.9375 8.36294 5.9375 7.5C5.9375 6.63706 6.63705 5.9375 7.5 5.9375C8.36294 5.9375 9.0625 6.63706 9.0625 7.5Z" fill="black"/>
<path d="M7.5 14.0625C8.36294 14.0625 9.0625 13.3629 9.0625 12.5C9.0625 11.6371 8.36294 10.9375 7.5 10.9375C6.63705 10.9375 5.9375 11.6371 5.9375 12.5C5.9375 13.3629 6.63705 14.0625 7.5 14.0625Z" fill="black"/>
</svg>
